<?xml version="1.0" encoding="UTF-8"?>
<svg id="Capa_2" data-name="Capa 2" xmlns="http://www.w3.org/2000/svg" viewBox="0 0 103.87 53.51">
  <defs>
    <style>
      .cls-1 {
        fill: #50b6df;
      }

      .cls-2 {
        fill: #221f1f;
        fill-rule: evenodd;
        stroke: #221f1f;
        stroke-miterlimit: 10;
        stroke-width: 1.17px;
      }

      .cls-3 {
        fill: #010101;
      }
    </style>
  </defs>
  <g id="Capa_1-2" data-name="Capa 1">
    <path class="cls-2" d="m.72,27.16c6.2-3.71,14.62-10.36,18.81-17.73l2.74,2.46c5.34-2.16,9.68-6,13.43-10.82,1.14,2.13,2.34,4.13,4.38,4.38.14-.36.27-.73.41-1.09,4,4.27,8,8.58,14.53,11.23,2-.05,3.27-2.12,4.38-4.65l2.19.95c2.86-.69,4.67-2.75,5.76-5.75,3.13,3.67,6.28,7.28,10.14,8.08l2.51-2.42c5.84,6.1,16.08,13.13,23.6,17.13-8-2.83-17.87-8.2-23-14.26l-2.6,2.33c-4-1-6.93-3.83-9.32-7.67-.28,2.78-2.36,4.67-5.48,6l-3.2-2.07c-.59,3.28-2,4.42-3.43,5.21-5.86-2.81-10.93-6.34-14.66-11.1-.23.73-.46,1.46-.68,2.19-2.01-1.19-3.66-2.89-4.8-4.93-3.91,5.39-8.97,8.78-14.43,11.51-.59-1.19-1.18-2.37-1.78-3.56C15.83,18.88,7.39,24.65.72,27.16Z"/>
    <path class="cls-3" d="m0,41.05l1.92-1.49c.49.09.99.16,1.49.2.84-.3,1.51-.93,1.86-1.75.42-1.21.6-2.5.54-3.78v-1.77c-.09-2.06.79-4.05,2.38-5.36,1.14-1.01,2.59-1.58,4.11-1.61.66.01,1.31.16,1.91.43l-1.7,1.67c-.61-.42-1.32-.66-2.06-.68-1.7,0-2.55,1.4-2.55,4.18v1.58c.08,1.61-.13,3.22-.62,4.75-.48,1.08-1.32,1.96-2.37,2.49l2.37.19,1,.08,1.27.08h1.14c1.64.09,3.24-.5,4.42-1.65.09.1.16.21.19.34,0,.25-.37.68-1.1,1.29-1.11.97-2.53,1.52-4,1.55-.58,0-1.31,0-2.16-.09l-3.4-.26c-1.81-.1-3.34-.24-4.64-.39Z"/>
    <path class="cls-3" d="m23.48,36.8c-.77,1.3-1.73,2.48-2.85,3.49-.71.76-1.66,1.24-2.69,1.36-1.05,0-1.57-.85-1.57-2.53-.03-2.22.79-4.36,2.29-6,1.33-1.61,3.32-2.54,5.41-2.54.68-.02,1.35.08,2,.29l-.07.25-.14.61c-.09.42-.14.66-.15.73l-.71,5.03-.1.73c-.08.48-.13.97-.15,1.46,0,.32.09.49.28.49.64,0,1.29-.72,2-2.14.21.12.31.24.31.36-.2.61-.54,1.17-1,1.62-.55.89-1.46,1.49-2.49,1.65-.56,0-.84-.38-.84-1.12,0-.33.03-.67.08-1l.12-.91.15-1,.12-.83Zm.65-4.54c-.65-.37-1.38-.56-2.13-.57-1.21.09-2.26.87-2.69,2-.77,1.5-1.15,3.17-1.09,4.85,0,1,.29,1.49.88,1.49.99-.18,1.88-.74,2.47-1.56,1.3-1.36,2.15-3.09,2.43-4.96l.13-1.25Z"/>
    <path class="cls-3" d="m44.87,40.57l.21.21c3.83,3.56,7.07,5.34,9.72,5.35.54.02,1.07-.17,1.48-.53.38-.33.6-.82.59-1.33,0-.27-.08-.53-.2-.77l2-1.1c.05.17.07.35.08.53-.03,1.1-.58,2.13-1.47,2.77-.95.79-2.15,1.21-3.38,1.2-1.86-.1-3.67-.61-5.31-1.5-2.11-1.04-4.06-2.37-5.8-3.94-.79.23-1.6.35-2.42.36-1.42.02-2.76-.65-3.61-1.78-.98-1.31-1.48-2.91-1.42-4.54-.03-2.6.95-5.11,2.74-7,1.6-1.9,3.96-2.99,6.44-3,1.45-.04,2.84.6,3.74,1.74.99,1.31,1.5,2.92,1.43,4.56.1,3.58-1.75,6.93-4.82,8.77Zm-.47-.49c2.07-1.44,3.11-3.82,3.11-7.16.06-1.64-.38-3.26-1.25-4.65-.64-1.13-1.83-1.83-3.13-1.86-1.63.02-3.14.88-4,2.27-1.12,1.67-1.68,3.66-1.6,5.67-.09,1.65.33,3.28,1.21,4.68.78,1.12,2.05,1.81,3.42,1.85l1.57-1.61.19.21.32.42c.06.05.11.11.16.18Z"/>
    <path class="cls-3" d="m59.47,36.86c-.82,1.27-1.81,2.41-2.95,3.4-.71.74-1.65,1.24-2.67,1.4-.76,0-1.14-.51-1.14-1.51.02-.62.07-1.23.15-1.84l.41-3.76s0-.27.06-.66l.07-.75v-.59c0-.44-.13-.66-.38-.66-.58,0-1.2.64-1.87,1.94-.13-.08-.21-.21-.22-.36,0-.48.42-1.11,1.26-1.89.51-.61,1.22-1.02,2-1.18.63,0,.95.43.95,1.3.01.24.01.48,0,.72l-.1.89-.1,1-.36,3.27c-.06.56-.09,1.13-.09,1.7,0,.53.19.79.58.79.86,0,1.83-.71,2.92-2.13.99-1.22,1.66-2.67,1.92-4.22l.4-2.71,1.86-.63c-.2.78-.36,1.57-.48,2.37l-.69,4.74c0,.29-.06.53-.09.73l-.08.63c0,.39-.07.67-.07.83,0,.32.09.49.28.49.65,0,1.31-.72,2-2.14.21.12.31.24.31.36-.19.62-.54,1.17-1,1.62-.55.89-1.46,1.49-2.49,1.65-.55,0-.83-.38-.83-1.12,0-.33.03-.67.08-1l.13-.91c.07-.5.11-.83.14-1l.09-.77Z"/>
    <path class="cls-3" d="m69.87,38.03c.21.12.31.24.31.35-.19.62-.53,1.18-1,1.63-.55.89-1.45,1.49-2.48,1.65-.56,0-.84-.37-.84-1.11,0-.31.12-1.28.35-2.89l.44-3.11.12-.79.09-.63c.04-.22.06-.45.06-.67,0-.38-.11-.57-.32-.57-.6,0-1.23.65-1.92,1.95-.12-.09-.2-.23-.22-.38,0-.47.43-1.1,1.29-1.88.53-.61,1.26-1.03,2.06-1.18.57,0,.86.39.86,1.19,0,.15-.03.46-.09.93l-.11.77c0,.06,0,.37-.12.93l-.47,3.27-.12.73c-.08.48-.12.97-.14,1.46,0,.32.09.49.28.49.64,0,1.3-.72,1.97-2.14Z"/>
    <path class="cls-3" d="m74.36,40.96l-1.71.7v-.32l.09-.85.09-.8.6-5.32.07-.61c.04-.38.07-.76.07-1.14,0-.49-.12-.73-.37-.73-.57,0-1.19.64-1.85,1.94-.17-.14-.26-.27-.26-.37,0-.46.42-1.09,1.26-1.88.51-.61,1.22-1.03,2-1.18.67,0,1,.42,1,1.26,0,.29-.03.57-.06.86l-.09.92-.09.78-.1.82c.83-1.25,1.84-2.38,3-3.33.74-.73,1.71-1.19,2.74-1.31.74,0,1.11.51,1.11,1.54-.01.47-.05.94-.12,1.41l-.62,4.27c-.11.66-.17,1.33-.19,2,0,.4.1.6.32.6.53,0,1.2-.7,2-2.1.18.12.28.23.28.36,0,.49-.43,1.14-1.28,1.95-.53.63-1.27,1.06-2.08,1.21-.6,0-.9-.43-.9-1.29.02-.87.1-1.74.24-2.6l.41-2.77c.07-.7.1-1.41.08-2.12,0-.6-.21-.91-.63-.91-1,0-2,.67-3,2-.96,1.24-1.57,2.71-1.76,4.27l-.25,2.74Z"/>
    <path class="cls-3" d="m88.09,32.02l-.55,5.07c-.1.91-.15,1.58-.15,2,0,.87.29,1.3.88,1.3s1.28-.52,2-1.56c.1.11.16.24.17.39,0,.43-.38.94-1.13,1.53-.53.5-1.21.82-1.94.9-1.08,0-1.63-.7-1.63-2.09,0-.51.07-1.34.2-2.48l.55-5.07h-2.49l1.34-1.33h1.26l.24-2.08,1.69-.56-.28,2.64h4.85l-1.34,1.33h-3.67Z"/>
    <path class="cls-3" d="m99.75,36.8c-.76,1.3-1.72,2.48-2.84,3.49-.71.76-1.67,1.24-2.7,1.36-1,0-1.56-.85-1.56-2.53-.03-2.22.79-4.36,2.28-6,1.34-1.62,3.32-2.55,5.42-2.54.68-.02,1.35.08,2,.29-.02.08-.04.17-.07.25l-.13.61c-.09.42-.14.66-.15.73l-.73,5.06-.11.73c-.08.48-.13.97-.15,1.46,0,.32.1.49.29.49.64,0,1.29-.72,2-2.14.21.12.31.24.31.36-.19.61-.54,1.17-1,1.62-.55.89-1.45,1.49-2.48,1.65-.56,0-.84-.38-.84-1.12,0-.33.03-.67.08-1l.12-.91.15-1,.11-.86Zm.66-4.54c-.64-.37-1.37-.57-2.11-.58-1.21.09-2.26.87-2.7,2-.77,1.5-1.14,3.17-1.09,4.85,0,1,.3,1.49.89,1.49.99-.18,1.87-.74,2.46-1.56,1.28-1.36,2.1-3.08,2.36-4.92l.19-1.28Z"/>
    <path class="cls-3" d="m34.89,49.71c0,.22-.03.44-.11.64-.06.17-.16.33-.29.46-.11.12-.25.22-.41.28-.16.06-.33.09-.5.09h-.69v2.18h-.64v-5.08h1.29c.16,0,.32.02.47.07.16.04.31.12.43.23.14.12.25.27.32.44.1.22.14.45.13.69Zm-.65,0c.02-.24-.06-.48-.21-.67-.15-.14-.35-.22-.56-.21h-.58v1.82h.58c.21,0,.42-.08.56-.24.16-.2.23-.45.21-.7Z"/>
    <path class="cls-3" d="m35.66,53.36v-5.08h.64v4.48h1.44v.6h-2.08Z"/>
    <path class="cls-3" d="m41.03,52.34c-.05.21-.13.41-.25.59-.12.17-.28.31-.47.4-.22.11-.47.16-.72.15-.25,0-.49-.04-.71-.15-.18-.09-.34-.23-.46-.4-.12-.18-.21-.38-.25-.59-.05-.24-.08-.48-.08-.72v-3.34h.65v3.27c-.02.17-.02.33,0,.5.02.15.06.29.13.43.07.12.16.22.27.29.13.09.28.13.43.12.15,0,.3-.04.42-.12.11-.07.2-.17.26-.29.07-.14.12-.28.14-.43.01-.17.01-.33,0-.5v-3.27h.73v3.34c0,.24-.03.48-.09.72Z"/>
    <path class="cls-3" d="m45.63,53.36v-4.21h0l-1.13,4.21h-.58l-1.12-4.21h0v4.21h-.68v-5.08h1l1.09,4h0l1.07-4h1v5.08h-.65Z"/>
    <path class="cls-3" d="m49.27,50.69c.1.03.2.06.29.11.11.06.21.14.29.24.09.11.16.24.21.38.06.17.09.36.09.54,0,.23-.04.45-.13.66-.08.16-.19.31-.33.43-.13.11-.29.19-.45.24-.15.05-.31.07-.47.07h-1.38v-5.08h1.22c.15-.01.31-.01.46,0,.16.04.31.1.44.2.14.1.25.24.33.39.09.19.14.4.13.61,0,.15-.02.3-.06.44-.04.12-.09.23-.15.33-.06.09-.14.17-.23.23-.08.06-.17.11-.26.14v.07Zm.1-1.06c0-.13-.03-.27-.08-.39-.04-.08-.1-.14-.17-.2-.08-.06-.17-.11-.26-.13-.1-.02-.21-.02-.31,0h-.54v1.64h.56c.1,0,.2-.02.29-.05.09-.03.18-.08.26-.14.08-.07.14-.16.18-.26.07-.15.09-.31.07-.47Zm.13,2.29c0-.15-.02-.3-.08-.44-.05-.11-.12-.22-.21-.3-.09-.07-.19-.11-.29-.14-.11-.01-.21-.01-.32,0h-.6v1.85h.63c.12,0,.23-.02.34-.05.11-.03.2-.09.28-.17.08-.07.14-.17.18-.27.06-.15.09-.32.07-.48Z"/>
    <path class="cls-3" d="m50.98,53.36v-5.08h.65v5.08h-.65Z"/>
    <path class="cls-3" d="m54.99,53.36l-1.63-3.94h0v3.94h-.59v-5.08h.77l1.58,3.94h0v-3.94h.6v5.08h-.73Z"/>
    <path class="cls-3" d="m58.43,48.16c.25,0,.5.05.73.15.21.1.39.26.52.46l-.4.43c-.1-.14-.22-.25-.37-.34-.14-.08-.29-.12-.45-.12-.18,0-.36.06-.51.17-.15.12-.27.27-.35.45-.11.21-.18.43-.21.66-.05.26-.07.52-.07.79,0,.27.02.55.07.82.04.23.12.45.23.65.08.17.21.32.37.43.15.11.33.17.52.16.22.01.43-.05.61-.17v-1.57h-.67v-.56h1.29v2.47c-.15.13-.33.24-.52.3-.23.08-.48.12-.72.11-.28,0-.55-.06-.79-.19-.23-.13-.43-.31-.58-.53-.17-.25-.29-.53-.37-.83-.08-.36-.12-.72-.12-1.09,0-.36.04-.71.12-1.06.07-.3.19-.58.35-.84.14-.22.33-.41.56-.55.23-.14.49-.21.76-.2Z"/>
    <path class="cls-3" d="m64.4,52.04c0,.21-.03.42-.1.62-.07.17-.17.33-.3.46-.12.13-.27.23-.43.29-.17.07-.36.1-.54.1-.25,0-.5-.05-.73-.16-.22-.1-.41-.24-.56-.43l.38-.46c.11.14.25.25.41.33.15.08.33.12.5.13.2,0,.39-.08.53-.22.15-.17.23-.39.21-.62,0-.12-.02-.24-.06-.35-.05-.09-.11-.18-.18-.26-.08-.08-.17-.15-.26-.22l-.32-.21c-.14-.07-.27-.14-.4-.23-.12-.08-.23-.18-.32-.29-.1-.12-.18-.25-.23-.39-.05-.17-.08-.35-.08-.53,0-.22.03-.44.11-.64.07-.17.18-.32.31-.45.12-.12.27-.21.43-.27.16-.06.33-.08.5-.08.23,0,.45.04.66.12.19.08.35.2.48.36l-.39.46c-.23-.31-.63-.44-1-.31-.09.03-.17.08-.24.15-.07.07-.13.16-.17.26-.05.12-.07.25-.07.38,0,.12.02.23.06.34.05.09.1.17.17.25.07.07.15.14.24.2l.29.17.4.22c.13.09.25.19.35.3.11.12.2.26.26.41.07.18.1.38.09.57Z"/>
    <path class="cls-3" d="m68.52,50.81c0,.37-.04.73-.12,1.09-.06.3-.18.58-.34.84-.14.23-.32.41-.55.55-.22.13-.47.2-.72.19-.26,0-.52-.06-.74-.19-.22-.14-.41-.33-.55-.55-.16-.26-.28-.54-.34-.84-.16-.72-.16-1.46,0-2.18.07-.3.18-.58.33-.84.14-.22.33-.4.55-.53.23-.13.49-.2.75-.19.25,0,.5.06.72.19.22.13.41.31.55.53.16.26.27.54.34.84.08.36.12.72.12,1.09Zm-.68,0c0-.27-.02-.54-.07-.81-.04-.23-.1-.45-.2-.66-.08-.17-.19-.32-.33-.44-.13-.11-.29-.16-.45-.16-.17,0-.34.05-.47.16-.15.12-.26.27-.33.44-.1.21-.16.43-.2.66-.09.54-.09,1.08,0,1.62.03.23.1.45.2.66.07.17.18.33.33.44.13.11.3.17.47.17.17,0,.33-.06.45-.17.14-.12.26-.27.33-.44.1-.21.17-.43.2-.66.05-.27.07-.54.07-.81Z"/>
    <path class="cls-3" d="m69.42,53.36v-5.08h.7v4.48h1.43v.6h-2.13Z"/>
    <path class="cls-3" d="m74.79,52.34c-.04.21-.13.41-.25.59-.12.17-.28.31-.47.4-.22.11-.47.16-.72.15-.24,0-.48-.04-.7-.15-.19-.09-.35-.23-.47-.4-.12-.18-.21-.38-.25-.59-.05-.24-.08-.48-.08-.72v-3.34h.65v3.27c-.02.17-.02.33,0,.5.02.15.06.29.13.43.07.12.16.22.27.29.13.09.28.13.43.12.15,0,.3-.04.42-.12.11-.07.2-.17.26-.29.07-.14.12-.28.14-.43.01-.17.01-.33,0-.5v-3.27h.64v3.34c.03.24.03.48,0,.72Z"/>
    <path class="cls-3" d="m76.98,48.83v4.53h-.65v-4.53h-1v-.55h2.59v.55h-.94Z"/>
    <path class="cls-3" d="m78.5,53.36v-5.08h.62v5.08h-.62Z"/>
    <path class="cls-3" d="m83.52,50.81c0,.37-.04.73-.12,1.09-.06.3-.18.58-.34.84-.14.23-.32.41-.55.55-.22.13-.47.2-.72.19-.26,0-.52-.06-.74-.19-.22-.14-.41-.33-.55-.55-.16-.26-.28-.54-.34-.84-.16-.72-.16-1.46,0-2.18.07-.3.18-.58.33-.84.14-.22.33-.4.55-.53.23-.13.49-.2.75-.19.25,0,.5.06.72.19.22.13.41.31.55.53.16.26.27.54.34.84.08.36.12.72.12,1.09Zm-.68,0c0-.27-.02-.54-.07-.81-.04-.23-.1-.45-.2-.66-.08-.17-.19-.32-.33-.44-.13-.11-.29-.16-.45-.16-.17,0-.34.05-.47.16-.15.12-.26.27-.34.44-.09.21-.15.43-.19.66-.09.54-.09,1.08,0,1.62.03.23.1.45.19.66.07.17.19.32.34.44.13.11.3.17.47.17.17,0,.33-.06.45-.17.14-.12.26-.27.33-.44.1-.21.17-.43.2-.66.05-.27.07-.54.07-.81Z"/>
    <path class="cls-3" d="m86.66,53.36l-1.62-3.94h0v3.94h-.62v-5.08h.77l1.6,3.94h0v-3.94h.59v5.08h-.72Z"/>
    <path class="cls-3" d="m90.83,52.04c0,.21-.04.42-.11.62-.12.34-.39.61-.72.75-.17.07-.36.1-.54.1-.26,0-.51-.05-.74-.16-.22-.09-.41-.24-.55-.43l.38-.46c.11.14.25.25.41.33.15.08.33.13.5.13.2,0,.39-.08.53-.22.15-.17.23-.39.21-.62,0-.12-.02-.24-.07-.35-.04-.1-.1-.19-.18-.26-.08-.08-.16-.16-.26-.22l-.32-.18c-.14-.06-.27-.14-.39-.23-.12-.08-.23-.18-.33-.29-.1-.12-.17-.25-.22-.39-.06-.17-.09-.35-.08-.53,0-.22.03-.44.11-.64.07-.17.18-.32.31-.45.12-.12.27-.21.43-.27.16-.06.32-.08.49-.08.23,0,.45.04.66.12.19.08.36.2.49.36l-.39.46c-.17-.23-.44-.37-.73-.36-.09-.02-.18-.02-.27,0-.09.03-.17.08-.24.15-.08.07-.14.16-.18.26-.04.12-.06.25-.06.38,0,.12.02.23.06.34.04.09.1.18.17.25.07.07.15.14.24.2.09.06.19.12.29.17l.4.22c.12.09.24.19.35.3.11.12.19.26.25.41.08.19.11.39.1.59Z"/>
    <path class="cls-1" d="m66.05,24.49s-2.29,3.64.42,5c0,0,2.44.92,3.49-1,.49-1.08.44-2.33-.13-3.37-.73-1.25-1.4-2.55-2-3.87,0,0-1.36,2.69-1.78,3.24Z"/>
    <path class="cls-3" d="m94.32,53.47v-5.2h.62v5.2h-.62Z"/>
    <path class="cls-3" d="m98.56,53.47l-1.62-4.03h0v4.03h-.62v-5.2h.77l1.6,4.03h0v-4.03h.59v5.2h-.72Z"/>
    <path d="m103.58,48.52l-.21.59c-.2-.16-.53-.24-.96-.24-.41,0-.74.19-.99.57-.25.38-.37.87-.37,1.48s.13,1.04.38,1.4.58.54.98.54c.44,0,.77-.17,1.01-.5l.35.53c-.37.4-.85.6-1.43.6s-1.09-.24-1.44-.72-.53-1.1-.53-1.88.19-1.38.56-1.88c.37-.5.86-.75,1.45-.75.51,0,.91.09,1.19.27Z"/>
  </g>
</svg>