<?xml version="1.0" encoding="utf-8"?>
<!-- Generator: Adobe Illustrator 27.1.0, SVG Export Plug-In . SVG Version: 6.00 Build 0)  -->
<svg version="1.1" id="Capa_1" xmlns="http://www.w3.org/2000/svg" xmlns:xlink="http://www.w3.org/1999/xlink" x="0px" y="0px"
	 viewBox="0 0 106.2 76" style="enable-background:new 0 0 106.2 76;" xml:space="preserve">
<style type="text/css">
	.st0{fill:#FFFFFF;}
	.st1{fill:none;}
	.st2{fill-rule:evenodd;clip-rule:evenodd;fill:#221F1F;stroke:#221F1F;stroke-width:1.17;stroke-miterlimit:10;}
	.st3{fill:#010101;}
	.st4{fill:#50B6DF;}
</style>
<rect class="st0" width="106.2" height="76"/>
<rect y="-1.6" class="st1" width="32.9" height="21.5"/>
<path class="st2" d="M1.9,36.3C8.1,32.6,16.5,26,20.7,18.6l2.7,2.5c5.3-2.2,9.7-6,13.4-10.8c1.1,2.1,2.3,4.1,4.4,4.4
	c0.1-0.4,0.3-0.7,0.4-1.1c4,4.3,8,8.6,14.5,11.2c2,0,3.3-2.1,4.4-4.6l2.2,1c2.9-0.7,4.7-2.8,5.8-5.8c3.1,3.7,6.3,7.3,10.1,8.1
	l2.5-2.4c5.8,6.1,16.1,13.1,23.6,17.1c-8-2.8-17.9-8.2-23-14.3l-2.6,2.3c-4-1-6.9-3.8-9.3-7.7c-0.3,2.8-2.4,4.7-5.5,6l-3.2-2.1
	c-0.6,3.3-2,4.4-3.4,5.2c-5.9-2.8-10.9-6.3-14.7-11.1c-0.2,0.7-0.5,1.5-0.7,2.2c-2-1.2-3.7-2.9-4.8-4.9c-3.9,5.4-9,8.8-14.4,11.5
	c-0.6-1.2-1.2-2.4-1.8-3.6C17,28,8.6,33.8,1.9,36.3z"/>
<path class="st3" d="M1.2,50.2l1.9-1.5c0.5,0.1,1,0.2,1.5,0.2c0.8-0.3,1.5-0.9,1.9-1.8c0.4-1.2,0.6-2.5,0.5-3.8v-1.8
	c-0.1-2.1,0.8-4,2.4-5.4c1.1-1,2.6-1.6,4.1-1.6c0.7,0,1.3,0.2,1.9,0.4l-1.7,1.7c-0.6-0.4-1.3-0.7-2.1-0.7c-1.7,0-2.6,1.4-2.6,4.2
	v1.6C9.2,43.4,9,45,8.5,46.6c-0.5,1.1-1.3,2-2.4,2.5l2.4,0.2l1,0.1l1.3,0.1c0.3,0,0.7,0,1.1,0c1.6,0.1,3.2-0.5,4.4-1.7
	c0.1,0.1,0.2,0.2,0.2,0.3c0,0.2-0.4,0.7-1.1,1.3c-1.1,1-2.5,1.5-4,1.5c-0.6,0-1.3,0-2.2-0.1l-3.4-0.3C4,50.5,2.5,50.4,1.2,50.2z"/>
<path class="st3" d="M24.7,46c-0.8,1.3-1.7,2.5-2.9,3.5c-0.7,0.8-1.7,1.2-2.7,1.4c-1,0-1.6-0.8-1.6-2.5c0-2.2,0.8-4.4,2.3-6
	c1.3-1.6,3.3-2.5,5.4-2.5c0.7,0,1.4,0.1,2,0.3l-0.1,0.2l-0.1,0.6c-0.1,0.4-0.1,0.7-0.1,0.7l-0.7,5l-0.1,0.7c-0.1,0.5-0.1,1-0.1,1.5
	c0,0.3,0.1,0.5,0.3,0.5c0.6,0,1.3-0.7,2-2.1c0.2,0.1,0.3,0.2,0.3,0.4c-0.2,0.6-0.5,1.2-1,1.6C27,50,26.1,50.7,25,50.8
	c-0.6,0-0.8-0.4-0.8-1.1c0-0.3,0-0.7,0.1-1l0.1-0.9l0.1-1L24.7,46z M25.3,41.4c-0.6-0.4-1.4-0.6-2.1-0.6c-1.2,0.1-2.3,0.9-2.7,2
	c-0.8,1.5-1.1,3.2-1.1,4.8c0,1,0.3,1.5,0.9,1.5c1-0.2,1.9-0.7,2.5-1.6c1.3-1.4,2.2-3.1,2.4-5L25.3,41.4z"/>
<path class="st3" d="M46.1,49.7l0.2,0.2c3.8,3.6,7.1,5.3,9.7,5.3c0.5,0,1.1-0.2,1.5-0.5c0.4-0.3,0.6-0.8,0.6-1.3
	c0-0.3-0.1-0.5-0.2-0.8l2-1.1c0,0.2,0.1,0.4,0.1,0.5c0,1.1-0.6,2.1-1.5,2.8c-0.9,0.8-2.1,1.2-3.4,1.2c-1.9-0.1-3.7-0.6-5.3-1.5
	c-2.1-1-4.1-2.4-5.8-3.9c-0.8,0.2-1.6,0.4-2.4,0.4c-1.4,0-2.8-0.6-3.6-1.8c-1-1.3-1.5-2.9-1.4-4.5c0-2.6,1-5.1,2.7-7
	c1.6-1.9,4-3,6.4-3c1.5,0,2.8,0.6,3.7,1.7c1,1.3,1.5,2.9,1.4,4.6C51,44.5,49.1,47.9,46.1,49.7z M45.6,49.2c2.1-1.4,3.1-3.8,3.1-7.2
	c0.1-1.6-0.4-3.3-1.2-4.7c-0.6-1.1-1.8-1.8-3.1-1.9c-1.6,0-3.1,0.9-4,2.3c-1.1,1.7-1.7,3.7-1.6,5.7c-0.1,1.6,0.3,3.3,1.2,4.7
	c0.8,1.1,2.1,1.8,3.4,1.8l1.6-1.6l0.2,0.2l0.3,0.4C45.5,49.1,45.5,49.2,45.6,49.2z"/>
<path class="st3" d="M60.7,46c-0.8,1.3-1.8,2.4-3,3.4c-0.7,0.7-1.7,1.2-2.7,1.4c-0.8,0-1.1-0.5-1.1-1.5c0-0.6,0.1-1.2,0.2-1.8
	l0.4-3.8c0,0,0-0.3,0.1-0.7l0.1-0.8c0-0.2,0-0.4,0-0.6c0-0.4-0.1-0.7-0.4-0.7c-0.6,0-1.2,0.6-1.9,1.9c-0.1-0.1-0.2-0.2-0.2-0.4
	c0-0.5,0.4-1.1,1.3-1.9c0.5-0.6,1.2-1,2-1.2c0.6,0,1,0.4,1,1.3c0,0.2,0,0.5,0,0.7l-0.1,0.9l-0.1,1l-0.4,3.3
	c-0.1,0.6-0.1,1.1-0.1,1.7c0,0.5,0.2,0.8,0.6,0.8c0.9,0,1.8-0.7,2.9-2.1c1-1.2,1.7-2.7,1.9-4.2l0.4-2.7l1.9-0.6
	c-0.2,0.8-0.4,1.6-0.5,2.4l-0.7,4.7c0,0.3-0.1,0.5-0.1,0.7L62,48c0,0.4-0.1,0.7-0.1,0.8c0,0.3,0.1,0.5,0.3,0.5c0.7,0,1.3-0.7,2-2.1
	c0.2,0.1,0.3,0.2,0.3,0.4c-0.2,0.6-0.5,1.2-1,1.6c-0.5,0.9-1.5,1.5-2.5,1.7c-0.5,0-0.8-0.4-0.8-1.1c0-0.3,0-0.7,0.1-1l0.1-0.9
	c0.1-0.5,0.1-0.8,0.1-1L60.7,46z"/>
<path class="st3" d="M71.1,47.2c0.2,0.1,0.3,0.2,0.3,0.3c-0.2,0.6-0.5,1.2-1,1.6c-0.5,0.9-1.5,1.5-2.5,1.7c-0.6,0-0.8-0.4-0.8-1.1
	c0-0.3,0.1-1.3,0.3-2.9l0.4-3.1l0.1-0.8l0.1-0.6c0-0.2,0.1-0.4,0.1-0.7c0-0.4-0.1-0.6-0.3-0.6c-0.6,0-1.2,0.7-1.9,2
	c-0.1-0.1-0.2-0.2-0.2-0.4c0-0.5,0.4-1.1,1.3-1.9c0.5-0.6,1.3-1,2.1-1.2c0.6,0,0.9,0.4,0.9,1.2c0,0.2,0,0.5-0.1,0.9l-0.1,0.8
	c0,0.1,0,0.4-0.1,0.9l-0.5,3.3L69,47.4c-0.1,0.5-0.1,1-0.1,1.5c0,0.3,0.1,0.5,0.3,0.5C69.7,49.3,70.4,48.6,71.1,47.2z"/>
<path class="st3" d="M75.6,50.1l-1.7,0.7v-0.3l0.1-0.8l0.1-0.8l0.6-5.3l0.1-0.6c0-0.4,0.1-0.8,0.1-1.1c0-0.5-0.1-0.7-0.4-0.7
	c-0.6,0-1.2,0.6-1.8,1.9c-0.2-0.1-0.3-0.3-0.3-0.4c0-0.5,0.4-1.1,1.3-1.9c0.5-0.6,1.2-1,2-1.2c0.7,0,1,0.4,1,1.3
	c0,0.3,0,0.6-0.1,0.9l-0.1,0.9l-0.1,0.8l-0.1,0.8c0.8-1.3,1.8-2.4,3-3.3c0.7-0.7,1.7-1.2,2.7-1.3c0.7,0,1.1,0.5,1.1,1.5
	c0,0.5-0.1,0.9-0.1,1.4l-0.6,4.3c-0.1,0.7-0.2,1.3-0.2,2c0,0.4,0.1,0.6,0.3,0.6c0.5,0,1.2-0.7,2-2.1c0.2,0.1,0.3,0.2,0.3,0.4
	c0,0.5-0.4,1.1-1.3,2c-0.5,0.6-1.3,1.1-2.1,1.2c-0.6,0-0.9-0.4-0.9-1.3c0-0.9,0.1-1.7,0.2-2.6l0.4-2.8c0.1-0.7,0.1-1.4,0.1-2.1
	c0-0.6-0.2-0.9-0.6-0.9c-1,0-2,0.7-3,2c-1,1.2-1.6,2.7-1.8,4.3L75.6,50.1z"/>
<path class="st3" d="M89.3,41.2l-0.6,5.1c-0.1,0.9-0.2,1.6-0.2,2c0,0.9,0.3,1.3,0.9,1.3s1.3-0.5,2-1.6c0.1,0.1,0.2,0.2,0.2,0.4
	c0,0.4-0.4,0.9-1.1,1.5c-0.5,0.5-1.2,0.8-1.9,0.9c-1.1,0-1.6-0.7-1.6-2.1c0-0.5,0.1-1.3,0.2-2.5l0.6-5.1h-2.5l1.3-1.3h1.3l0.2-2.1
	l1.7-0.6l-0.3,2.6h4.8L93,41.2L89.3,41.2z"/>
<path class="st3" d="M100.9,46c-0.8,1.3-1.7,2.5-2.8,3.5c-0.7,0.8-1.7,1.2-2.7,1.4c-1,0-1.6-0.8-1.6-2.5c0-2.2,0.8-4.4,2.3-6
	c1.3-1.6,3.3-2.5,5.4-2.5c0.7,0,1.4,0.1,2,0.3c0,0.1,0,0.2-0.1,0.2l-0.1,0.6c-0.1,0.4-0.1,0.7-0.2,0.7l-0.7,5.1l-0.1,0.7
	c-0.1,0.5-0.1,1-0.2,1.5c0,0.3,0.1,0.5,0.3,0.5c0.6,0,1.3-0.7,2-2.1c0.2,0.1,0.3,0.2,0.3,0.4c-0.2,0.6-0.5,1.2-1,1.6
	c-0.5,0.9-1.5,1.5-2.5,1.7c-0.6,0-0.8-0.4-0.8-1.1c0-0.3,0-0.7,0.1-1l0.1-0.9l0.2-1L100.9,46z M101.6,41.4c-0.6-0.4-1.4-0.6-2.1-0.6
	c-1.2,0.1-2.3,0.9-2.7,2c-0.8,1.5-1.1,3.2-1.1,4.8c0,1,0.3,1.5,0.9,1.5c1-0.2,1.9-0.7,2.5-1.6c1.3-1.4,2.1-3.1,2.4-4.9L101.6,41.4z"
	/>
<path class="st3" d="M36.1,58.9c0,0.2,0,0.4-0.1,0.6c-0.1,0.2-0.2,0.3-0.3,0.5c-0.1,0.1-0.3,0.2-0.4,0.3c-0.2,0.1-0.3,0.1-0.5,0.1
	h-0.7v2.2h-0.6v-5.1h1.3c0.2,0,0.3,0,0.5,0.1c0.2,0,0.3,0.1,0.4,0.2c0.1,0.1,0.2,0.3,0.3,0.4C36.1,58.4,36.1,58.6,36.1,58.9z
	 M35.4,58.9c0-0.2-0.1-0.5-0.2-0.7C35.1,58,34.9,58,34.7,58h-0.6v1.8h0.6c0.2,0,0.4-0.1,0.6-0.2C35.4,59.4,35.5,59.1,35.4,58.9z"/>
<path class="st3" d="M36.9,62.5v-5.1h0.6v4.5h1.4v0.6H36.9z"/>
<path class="st3" d="M42.2,61.5c0,0.2-0.1,0.4-0.2,0.6c-0.1,0.2-0.3,0.3-0.5,0.4c-0.2,0.1-0.5,0.2-0.7,0.2c-0.2,0-0.5,0-0.7-0.2
	c-0.2-0.1-0.3-0.2-0.5-0.4c-0.1-0.2-0.2-0.4-0.2-0.6c-0.1-0.2-0.1-0.5-0.1-0.7v-3.3h0.7v3.3c0,0.2,0,0.3,0,0.5
	c0,0.1,0.1,0.3,0.1,0.4c0.1,0.1,0.2,0.2,0.3,0.3c0.1,0.1,0.3,0.1,0.4,0.1c0.1,0,0.3,0,0.4-0.1c0.1-0.1,0.2-0.2,0.3-0.3
	c0.1-0.1,0.1-0.3,0.1-0.4c0-0.2,0-0.3,0-0.5v-3.3h0.7v3.3C42.3,61,42.3,61.3,42.2,61.5z"/>
<path class="st3" d="M46.8,62.5v-4.2l0,0l-1.1,4.2h-0.6L44,58.3l0,0v4.2h-0.7v-5.1h1l1.1,4l0,0l1.1-4h1v5.1H46.8z"/>
<path class="st3" d="M50.5,59.8c0.1,0,0.2,0.1,0.3,0.1c0.1,0.1,0.2,0.1,0.3,0.2c0.1,0.1,0.2,0.2,0.2,0.4c0.1,0.2,0.1,0.4,0.1,0.5
	c0,0.2,0,0.5-0.1,0.7c-0.1,0.2-0.2,0.3-0.3,0.4c-0.1,0.1-0.3,0.2-0.5,0.2c-0.2,0-0.3,0.1-0.5,0.1h-1.4v-5.1h1.2c0.2,0,0.3,0,0.5,0
	c0.2,0,0.3,0.1,0.4,0.2c0.1,0.1,0.3,0.2,0.3,0.4c0.1,0.2,0.1,0.4,0.1,0.6c0,0.1,0,0.3-0.1,0.4c0,0.1-0.1,0.2-0.2,0.3
	c-0.1,0.1-0.1,0.2-0.2,0.2C50.7,59.7,50.6,59.7,50.5,59.8L50.5,59.8z M50.6,58.8c0-0.1,0-0.3-0.1-0.4c0-0.1-0.1-0.1-0.2-0.2
	c-0.1-0.1-0.2-0.1-0.3-0.1c-0.1,0-0.2,0-0.3,0h-0.5v1.6h0.6c0.1,0,0.2,0,0.3,0c0.1,0,0.2-0.1,0.3-0.1c0.1-0.1,0.1-0.2,0.2-0.3
	C50.6,59.1,50.6,58.9,50.6,58.8z M50.7,61.1c0-0.2,0-0.3-0.1-0.4c0-0.1-0.1-0.2-0.2-0.3c-0.1-0.1-0.2-0.1-0.3-0.1
	c-0.1,0-0.2,0-0.3,0h-0.6V62h0.6c0.1,0,0.2,0,0.3,0c0.1,0,0.2-0.1,0.3-0.2c0.1-0.1,0.1-0.2,0.2-0.3C50.7,61.4,50.7,61.2,50.7,61.1z"
	/>
<path class="st3" d="M52.2,62.5v-5.1h0.7v5.1H52.2z"/>
<path class="st3" d="M56.2,62.5l-1.6-3.9l0,0v3.9H54v-5.1h0.8l1.6,3.9l0,0v-3.9h0.6v5.1H56.2z"/>
<path class="st3" d="M59.6,57.3c0.3,0,0.5,0,0.7,0.2c0.2,0.1,0.4,0.3,0.5,0.5l-0.4,0.4c-0.1-0.1-0.2-0.3-0.4-0.3
	c-0.1-0.1-0.3-0.1-0.4-0.1c-0.2,0-0.4,0.1-0.5,0.2c-0.2,0.1-0.3,0.3-0.3,0.5c-0.1,0.2-0.2,0.4-0.2,0.7c0,0.3-0.1,0.5-0.1,0.8
	c0,0.3,0,0.5,0.1,0.8c0,0.2,0.1,0.4,0.2,0.7c0.1,0.2,0.2,0.3,0.4,0.4c0.2,0.1,0.3,0.2,0.5,0.2c0.2,0,0.4,0,0.6-0.2v-1.6h-0.7v-0.6
	h1.3v2.5c-0.2,0.1-0.3,0.2-0.5,0.3c-0.2,0.1-0.5,0.1-0.7,0.1c-0.3,0-0.5-0.1-0.8-0.2c-0.2-0.1-0.4-0.3-0.6-0.5
	c-0.2-0.3-0.3-0.5-0.4-0.8c-0.1-0.4-0.1-0.7-0.1-1.1c0-0.4,0-0.7,0.1-1.1c0.1-0.3,0.2-0.6,0.3-0.8c0.1-0.2,0.3-0.4,0.6-0.5
	C59.1,57.4,59.4,57.3,59.6,57.3z"/>
<path class="st3" d="M65.6,61.2c0,0.2,0,0.4-0.1,0.6c-0.1,0.2-0.2,0.3-0.3,0.5c-0.1,0.1-0.3,0.2-0.4,0.3c-0.2,0.1-0.4,0.1-0.5,0.1
	c-0.3,0-0.5-0.1-0.7-0.2c-0.2-0.1-0.4-0.2-0.6-0.4l0.4-0.5c0.1,0.1,0.3,0.3,0.4,0.3c0.2,0.1,0.3,0.1,0.5,0.1c0.2,0,0.4-0.1,0.5-0.2
	c0.1-0.2,0.2-0.4,0.2-0.6c0-0.1,0-0.2-0.1-0.3c-0.1-0.1-0.1-0.2-0.2-0.3c-0.1-0.1-0.2-0.2-0.3-0.2l-0.3-0.2C64,60.1,63.9,60,63.7,60
	c-0.1-0.1-0.2-0.2-0.3-0.3c-0.1-0.1-0.2-0.2-0.2-0.4c-0.1-0.2-0.1-0.4-0.1-0.5c0-0.2,0-0.4,0.1-0.6c0.1-0.2,0.2-0.3,0.3-0.5
	c0.1-0.1,0.3-0.2,0.4-0.3c0.2-0.1,0.3-0.1,0.5-0.1c0.2,0,0.4,0,0.7,0.1c0.2,0.1,0.4,0.2,0.5,0.4l-0.4,0.5c-0.2-0.3-0.6-0.4-1-0.3
	C64.1,58,64,58,64,58.1c-0.1,0.1-0.1,0.2-0.2,0.3c0,0.1-0.1,0.3-0.1,0.4c0,0.1,0,0.2,0.1,0.3c0,0.1,0.1,0.2,0.2,0.2
	c0.1,0.1,0.2,0.1,0.2,0.2l0.3,0.2l0.4,0.2c0.1,0.1,0.2,0.2,0.3,0.3c0.1,0.1,0.2,0.3,0.3,0.4C65.6,60.8,65.6,61,65.6,61.2z"/>
<path class="st3" d="M69.7,60c0,0.4,0,0.7-0.1,1.1c-0.1,0.3-0.2,0.6-0.3,0.8c-0.1,0.2-0.3,0.4-0.6,0.5c-0.2,0.1-0.5,0.2-0.7,0.2
	c-0.3,0-0.5-0.1-0.7-0.2c-0.2-0.1-0.4-0.3-0.6-0.5c-0.2-0.3-0.3-0.5-0.3-0.8c-0.2-0.7-0.2-1.5,0-2.2c0.1-0.3,0.2-0.6,0.3-0.8
	c0.1-0.2,0.3-0.4,0.6-0.5c0.2-0.1,0.5-0.2,0.8-0.2c0.3,0,0.5,0.1,0.7,0.2c0.2,0.1,0.4,0.3,0.6,0.5c0.2,0.3,0.3,0.5,0.3,0.8
	C69.7,59.2,69.7,59.6,69.7,60z M69,60c0-0.3,0-0.5-0.1-0.8c0-0.2-0.1-0.5-0.2-0.7c-0.1-0.2-0.2-0.3-0.3-0.4
	c-0.1-0.1-0.3-0.2-0.4-0.2c-0.2,0-0.3,0.1-0.5,0.2c-0.1,0.1-0.3,0.3-0.3,0.4c-0.1,0.2-0.2,0.4-0.2,0.7c-0.1,0.5-0.1,1.1,0,1.6
	c0,0.2,0.1,0.5,0.2,0.7c0.1,0.2,0.2,0.3,0.3,0.4C67.7,62,67.8,62,68,62c0.2,0,0.3-0.1,0.4-0.2c0.1-0.1,0.3-0.3,0.3-0.4
	c0.1-0.2,0.2-0.4,0.2-0.7C69,60.5,69,60.2,69,60z"/>
<path class="st3" d="M70.6,62.5v-5.1h0.7v4.5h1.4v0.6H70.6z"/>
<path class="st3" d="M76,61.5c0,0.2-0.1,0.4-0.2,0.6c-0.1,0.2-0.3,0.3-0.5,0.4c-0.2,0.1-0.5,0.2-0.7,0.2c-0.2,0-0.5,0-0.7-0.2
	c-0.2-0.1-0.4-0.2-0.5-0.4c-0.1-0.2-0.2-0.4-0.2-0.6c-0.1-0.2-0.1-0.5-0.1-0.7v-3.3h0.7v3.3c0,0.2,0,0.3,0,0.5
	c0,0.1,0.1,0.3,0.1,0.4c0.1,0.1,0.2,0.2,0.3,0.3c0.1,0.1,0.3,0.1,0.4,0.1c0.1,0,0.3,0,0.4-0.1c0.1-0.1,0.2-0.2,0.3-0.3
	c0.1-0.1,0.1-0.3,0.1-0.4c0-0.2,0-0.3,0-0.5v-3.3H76v3.3C76,61,76,61.3,76,61.5z"/>
<path class="st3" d="M78.2,58v4.5h-0.7V58h-1v-0.5h2.6V58H78.2z"/>
<path class="st3" d="M79.7,62.5v-5.1h0.6v5.1H79.7z"/>
<path class="st3" d="M84.7,60c0,0.4,0,0.7-0.1,1.1c-0.1,0.3-0.2,0.6-0.3,0.8c-0.1,0.2-0.3,0.4-0.6,0.5c-0.2,0.1-0.5,0.2-0.7,0.2
	c-0.3,0-0.5-0.1-0.7-0.2c-0.2-0.1-0.4-0.3-0.6-0.5c-0.2-0.3-0.3-0.5-0.3-0.8c-0.2-0.7-0.2-1.5,0-2.2c0.1-0.3,0.2-0.6,0.3-0.8
	c0.1-0.2,0.3-0.4,0.6-0.5c0.2-0.1,0.5-0.2,0.8-0.2c0.3,0,0.5,0.1,0.7,0.2c0.2,0.1,0.4,0.3,0.6,0.5c0.2,0.3,0.3,0.5,0.3,0.8
	C84.7,59.2,84.7,59.6,84.7,60z M84,60c0-0.3,0-0.5-0.1-0.8c0-0.2-0.1-0.5-0.2-0.7c-0.1-0.2-0.2-0.3-0.3-0.4
	c-0.1-0.1-0.3-0.2-0.4-0.2c-0.2,0-0.3,0.1-0.5,0.2c-0.1,0.1-0.3,0.3-0.3,0.4c-0.1,0.2-0.2,0.4-0.2,0.7c-0.1,0.5-0.1,1.1,0,1.6
	c0,0.2,0.1,0.4,0.2,0.7c0.1,0.2,0.2,0.3,0.3,0.4C82.7,62,82.8,62,83,62c0.2,0,0.3-0.1,0.4-0.2c0.1-0.1,0.3-0.3,0.3-0.4
	c0.1-0.2,0.2-0.4,0.2-0.7C84,60.5,84,60.2,84,60z"/>
<path class="st3" d="M87.9,62.5l-1.6-3.9l0,0v3.9h-0.6v-5.1h0.8l1.6,3.9l0,0v-3.9h0.6v5.1H87.9z"/>
<path class="st3" d="M92,61.2c0,0.2,0,0.4-0.1,0.6c-0.1,0.3-0.4,0.6-0.7,0.7c-0.2,0.1-0.4,0.1-0.5,0.1c-0.3,0-0.5-0.1-0.7-0.2
	c-0.2-0.1-0.4-0.2-0.6-0.4l0.4-0.5c0.1,0.1,0.2,0.3,0.4,0.3c0.2,0.1,0.3,0.1,0.5,0.1c0.2,0,0.4-0.1,0.5-0.2c0.1-0.2,0.2-0.4,0.2-0.6
	c0-0.1,0-0.2-0.1-0.3c0-0.1-0.1-0.2-0.2-0.3c-0.1-0.1-0.2-0.2-0.3-0.2l-0.3-0.2c-0.1-0.1-0.3-0.1-0.4-0.2c-0.1-0.1-0.2-0.2-0.3-0.3
	c-0.1-0.1-0.2-0.2-0.2-0.4c-0.1-0.2-0.1-0.3-0.1-0.5c0-0.2,0-0.4,0.1-0.6c0.1-0.2,0.2-0.3,0.3-0.5c0.1-0.1,0.3-0.2,0.4-0.3
	c0.2-0.1,0.3-0.1,0.5-0.1c0.2,0,0.5,0,0.7,0.1c0.2,0.1,0.4,0.2,0.5,0.4l-0.4,0.5c-0.2-0.2-0.4-0.4-0.7-0.4c-0.1,0-0.2,0-0.3,0
	c-0.1,0-0.2,0.1-0.2,0.2c-0.1,0.1-0.1,0.2-0.2,0.3c0,0.1-0.1,0.3-0.1,0.4c0,0.1,0,0.2,0.1,0.3c0,0.1,0.1,0.2,0.2,0.2
	c0.1,0.1,0.2,0.1,0.2,0.2c0.1,0.1,0.2,0.1,0.3,0.2l0.4,0.2c0.1,0.1,0.2,0.2,0.3,0.3c0.1,0.1,0.2,0.3,0.2,0.4C92,60.8,92,61,92,61.2z
	"/>
<path class="st4" d="M67.2,33.6c0,0-2.3,3.6,0.4,5c0,0,2.4,0.9,3.5-1c0.5-1.1,0.4-2.3-0.1-3.4c-0.7-1.3-1.4-2.5-2-3.9
	C69,30.4,67.7,33.1,67.2,33.6z"/>
<path class="st3" d="M95.5,62.6v-5.2h0.6v5.2H95.5z"/>
<path class="st3" d="M99.8,62.6l-1.6-4l0,0v4h-0.6v-5.2h0.8l1.6,4l0,0v-4h0.6v5.2H99.8z"/>
<g>
	<path d="M104.8,57.7l-0.2,0.6c-0.2-0.2-0.5-0.2-1-0.2c-0.4,0-0.7,0.2-1,0.6c-0.2,0.4-0.4,0.9-0.4,1.5c0,0.6,0.1,1,0.4,1.4
		c0.3,0.4,0.6,0.5,1,0.5c0.4,0,0.8-0.2,1-0.5L105,62c-0.4,0.4-0.8,0.6-1.4,0.6c-0.6,0-1.1-0.2-1.4-0.7c-0.4-0.5-0.5-1.1-0.5-1.9
		c0-0.8,0.2-1.4,0.6-1.9c0.4-0.5,0.9-0.7,1.5-0.7C104.1,57.4,104.5,57.5,104.8,57.7z"/>
</g>
<rect x="74.5" y="34.7" class="st1" width="0.9" height="0.9"/>
</svg>
