<?xml version="1.0" encoding="UTF-8"?>
<svg xmlns="http://www.w3.org/2000/svg" xmlns:xlink="http://www.w3.org/1999/xlink" viewBox="0 0 144.69 205.51">
  <defs>
    <style>
      .cls-1 {
        fill: url(#linear-gradient-2);
      }

      .cls-2 {
        fill: #fff;
      }

      .cls-3 {
        isolation: isolate;
      }

      .cls-4 {
        mix-blend-mode: screen;
      }

      .cls-5 {
        fill: url(#linear-gradient);
      }

      .cls-6 {
        fill: #002236;
      }

      .cls-7 {
        fill: red;
      }
    </style>
    <linearGradient id="linear-gradient" x1="71.7" y1="49.84" x2="71.7" y2="64.37" gradientUnits="userSpaceOnUse">
      <stop offset=".21" stop-color="red"/>
      <stop offset="1" stop-color="#000"/>
    </linearGradient>
    <linearGradient id="linear-gradient-2" x1="70.94" y1="49.84" x2="70.94" y2="64.37" xlink:href="#linear-gradient"/>
  </defs>
  <g class="cls-3">
    <g id="Capa_2" data-name="Capa 2">
      <g id="Layer_1" data-name="Layer 1">
        <path class="cls-6" d="m138.82,80.69c0,37.21-67.37,124.82-67.37,124.82,0,0-67.37-87.61-67.37-124.82S34.24,13.32,71.45,13.32s67.37,30.16,67.37,67.37Z"/>
        <polygon class="cls-7" points="0 136.48 144.69 136.48 135.31 151.07 144.69 165.67 0 165.67 9.38 151.07 0 136.48"/>
        <g class="cls-4">
          <path class="cls-5" d="m71.7,26.59c-16.55,0-30.02,13.46-30.02,30.01,0,3.16.49,6.2,1.4,9.06h5.16c-1.09-2.81-1.7-5.87-1.7-9.06,0-13.87,11.28-25.15,25.15-25.15s25.15,11.28,25.15,25.15c0,3.19-.6,6.25-1.7,9.06h5.16c.91-2.86,1.4-5.9,1.4-9.06,0-16.55-13.46-30.01-30.01-30.01Z"/>
          <path class="cls-1" d="m84.5,39.4s-.02.02-.03.03l-11.87,12.63c-.4-.22-.86-.35-1.35-.37-.89-.04-1.71.3-2.3.88l-11.88-6.62c-.7-.39-1.56-.16-1.96.56-.39.7-.14,1.57.56,1.96l12.39,6.9c.26,1.4,1.45,2.5,2.94,2.56,1.72.07,3.18-1.27,3.25-2.99,0-.13,0-.27-.01-.4l12.34-13.13c.55-.58.52-1.49-.06-2.04-.57-.54-1.46-.52-2.01.03Z"/>
        </g>
        <g>
          <path class="cls-2" d="m24.56,109.54v-2.15c0-1.24.12-2.53.36-3.86.36-1.93.92-3.7,1.7-5.32.78-1.62,1.68-3.15,2.72-4.58,1.03-1.44,2.15-2.81,3.36-4.14,1.21-1.32,2.42-2.64,3.62-3.95.71-.79,1.27-1.66,1.68-2.63.41-.96.61-2.07.61-3.31,0-1.17-.17-2.11-.52-2.8-.35-.69-.98-1.04-1.89-1.04-1.49,0-2.23,1.33-2.23,3.99v3.91h-9.4l-.1-1.18c.02-2.36.18-4.49.5-6.37.31-1.88.91-3.47,1.78-4.77.87-1.3,2.07-2.29,3.61-2.98,1.53-.69,3.53-1.04,5.98-1.04,1.9,0,3.57.29,5.03.85,1.46.57,2.68,1.38,3.67,2.43.99,1.05,1.74,2.32,2.26,3.81.52,1.49.77,3.16.77,5.02s-.31,3.67-.93,5.33c-.62,1.66-1.41,3.18-2.37,4.54-.78,1.14-1.58,2.17-2.41,3.09-.83.92-1.65,1.83-2.45,2.72-.8.89-1.58,1.82-2.32,2.77-.75.95-1.41,2.02-2.01,3.19h12.19v8.46h-23.19Z"/>
          <path class="cls-2" d="m74.43,94.43v8.01h-1.78v7.12h-9.37v-7.12h-13.76v-7.01l8.96-27.71h14.17v26.71h1.78Zm-16.18,0h5.03v-19.02l-5.03,19.02Z"/>
          <path class="cls-2" d="m85.79,109.54h-9.22l10.41-46.41h9.24l-10.44,46.41Z"/>
          <path class="cls-2" d="m98.86,109.51c.17-2.1.45-4.15.84-6.16.39-2,.86-3.98,1.41-5.92.55-1.94,1.18-3.86,1.88-5.74.7-1.88,1.45-3.75,2.25-5.61.58-1.26,1.07-2.35,1.5-3.28.42-.93.78-1.73,1.08-2.42.3-.68.55-1.26.75-1.72.2-.46.37-.86.51-1.2.14-.33.24-.61.32-.83.08-.22.14-.42.19-.62h-12.62v-8.33h22.55v6.7c-.1.84-.32,1.71-.65,2.61-.33.9-.72,1.87-1.18,2.89-.46,1.02-.97,2.12-1.54,3.3-.57,1.17-1.14,2.44-1.71,3.81-.58,1.42-1.16,2.92-1.74,4.49-.58,1.58-1.13,3.28-1.63,5.11-.5,1.83-.94,3.81-1.31,5.94-.37,2.13-.63,4.45-.79,6.97h-10.11Z"/>
        </g>
        <g>
          <path class="cls-2" d="m36.29,129.15c-.67-.76-1.03-1.94-1.09-3.53l2.55-.45c.02.95.15,1.65.39,2.11.23.45.58.68,1.05.68.35,0,.6-.11.75-.34.16-.23.23-.52.23-.88,0-.59-.13-1.1-.39-1.51-.26-.41-.66-.87-1.21-1.36l-1.51-1.35c-.6-.52-1.06-1.08-1.37-1.67-.32-.59-.48-1.3-.48-2.13,0-1.22.35-2.17,1.05-2.83.7-.66,1.67-.99,2.9-.99,1.32,0,2.23.39,2.74,1.18.51.79.81,1.78.88,3l-2.56.39c-.02-.79-.11-1.38-.26-1.75-.15-.38-.45-.57-.89-.57-.32,0-.57.13-.75.38s-.27.55-.27.9c0,.5.1.91.31,1.25.21.34.54.71,1,1.12l1.47,1.34c.69.63,1.24,1.3,1.63,1.99.39.7.59,1.52.59,2.46,0,.72-.16,1.36-.47,1.92-.31.56-.75,1-1.32,1.33s-1.22.48-1.96.48c-1.34,0-2.34-.38-3.01-1.14Z"/>
          <path class="cls-2" d="m47.66,115.06h6.33v2.11h-3.39v3.99h2.62v2.13h-2.62v4.71h3.43v2.08h-6.37v-15.03Z"/>
          <path class="cls-2" d="m58.58,115.06h3.77c1.57,0,2.74.3,3.53.89.79.59,1.18,1.62,1.18,3.08,0,.98-.13,1.77-.39,2.37-.26.6-.73,1.05-1.4,1.36l2.01,7.33h-3.03l-1.65-6.81h-1.08v6.81h-2.94v-15.03Zm3.82,6.4c.69,0,1.18-.18,1.46-.53.28-.35.42-.91.42-1.66s-.13-1.29-.38-1.63c-.25-.35-.71-.52-1.36-.52h-1.02v4.34h.88Z"/>
          <path class="cls-2" d="m71.3,115.06h2.56l1.72,10.39,1.61-10.39h2.67l-2.76,15.03h-3.05l-2.76-15.03Z"/>
          <path class="cls-2" d="m84.43,115.06h2.94v15.03h-2.94v-15.03Z"/>
          <path class="cls-2" d="m93.38,129c-.65-.86-.97-2.1-.97-3.72v-5.38c0-1.66.32-2.91.96-3.76.64-.85,1.74-1.27,3.29-1.27s2.53.37,3.15,1.12c.62.75.92,1.82.92,3.22v1.26h-2.87v-1.39c0-.45-.02-.8-.06-1.08-.04-.27-.15-.5-.32-.68-.17-.18-.44-.27-.8-.27-.54,0-.89.18-1.04.54-.16.36-.23.88-.23,1.58v6.83c0,.71.09,1.23.27,1.58.18.35.51.52,1,.52s.82-.18.97-.53c.14-.35.22-.87.22-1.57v-1.46h2.87v1.24c0,1.43-.31,2.54-.91,3.33-.61.79-1.66,1.18-3.16,1.18s-2.64-.43-3.28-1.29Z"/>
          <path class="cls-2" d="m105.59,115.06h6.33v2.11h-3.39v3.99h2.62v2.13h-2.62v4.71h3.43v2.08h-6.37v-15.03Z"/>
        </g>
        <g>
          <path class="cls-2" d="m14.84,156.87v-11.96h4.79v2.31h-2.35v2.33h2.26v2.26h-2.26v2.74h2.51v2.33h-4.94Z"/>
          <path class="cls-2" d="m20.92,156.87v-11.96h3.65l1,7.3,1-7.3h3.68v11.96h-2.19v-8.62l-1.38,8.62h-2.14l-1.46-8.62v8.62h-2.16Z"/>
          <path class="cls-2" d="m31.66,156.87v-11.96h4.79v2.31h-2.35v2.33h2.26v2.26h-2.26v2.74h2.51v2.33h-4.94Z"/>
          <path class="cls-2" d="m37.74,144.91h3.68c.58,0,1.04.13,1.36.4s.54.64.65,1.11c.11.48.17,1.09.17,1.83,0,.68-.09,1.21-.26,1.59-.18.38-.48.64-.92.79.36.08.62.26.79.54.16.29.24.68.24,1.17l-.03,4.53h-2.34v-4.68c0-.33-.06-.55-.19-.64-.13-.09-.37-.14-.71-.14v5.46h-2.42v-11.96Zm3.01,4.43c.33,0,.5-.36.5-1.09,0-.32-.01-.55-.04-.71-.03-.16-.08-.27-.15-.33s-.18-.09-.32-.09h-.56v2.21h.57Z"/>
          <path class="cls-2" d="m45.27,156.07c-.42-.61-.63-1.53-.63-2.76v-5.15c0-1.11.25-1.94.74-2.51s1.23-.85,2.2-.85c.79,0,1.4.16,1.84.47.44.32.74.78.91,1.38.17.6.25,1.38.25,2.33h-2.34v-1.07c0-.29-.04-.51-.12-.67-.08-.16-.22-.24-.42-.24-.46,0-.68.3-.68.89v5.79c0,.36.05.64.14.82s.26.28.49.28.39-.09.49-.28.14-.46.14-.82v-1.71h-.64v-2.06h2.92v6.96h-.96l-.4-1c-.43.74-1.09,1.11-1.98,1.11s-1.51-.3-1.93-.91Z"/>
          <path class="cls-2" d="m51.83,156.87v-11.96h4.79v2.31h-2.35v2.33h2.26v2.26h-2.26v2.74h2.51v2.33h-4.94Z"/>
          <path class="cls-2" d="m57.92,156.87v-11.96h2.46l1.1,5.72v-5.72h2.31v11.96h-2.34l-1.2-5.99v5.99h-2.34Z"/>
          <path class="cls-2" d="m65.89,156.16c-.52-.55-.79-1.3-.79-2.26v-5.51c0-1.19.24-2.08.71-2.69.47-.6,1.22-.91,2.23-.91.88,0,1.59.24,2.13.72.54.48.81,1.18.81,2.09v2.06h-2.38v-1.77c0-.34-.04-.58-.13-.71s-.23-.2-.43-.2-.36.07-.44.22c-.08.15-.12.37-.12.65v6c0,.32.05.54.14.69.09.14.23.22.42.22.37,0,.56-.3.56-.9v-2.16h2.41v2.25c0,2-1.01,3.01-3.02,3.01-.87,0-1.57-.27-2.1-.82Z"/>
          <path class="cls-2" d="m73.6,156.87v-3.94l-1.91-8.02h2.37l.67,4.05.67-4.05h2.37l-1.91,8.02v3.94h-2.25Z"/>
          <path class="cls-2" d="m82.8,156.18c-.48-.54-.72-1.41-.72-2.6v-1.17h2.35v1.49c0,.59.19.89.57.89.21,0,.36-.06.45-.19.08-.13.12-.34.12-.63,0-.39-.05-.71-.14-.97-.09-.25-.21-.47-.36-.64-.14-.17-.4-.44-.77-.8l-1.03-1.03c-.8-.78-1.2-1.64-1.2-2.59,0-1.02.23-1.8.7-2.33.47-.53,1.15-.8,2.05-.8,1.08,0,1.85.29,2.33.86.47.57.71,1.46.71,2.68h-2.44v-.82c-.01-.16-.06-.28-.15-.38-.09-.09-.21-.14-.37-.14-.19,0-.33.05-.42.15s-.14.24-.14.42c0,.39.22.79.67,1.21l1.39,1.34c.33.32.59.62.81.9.21.28.38.62.51,1,.13.39.2.84.2,1.37,0,1.18-.22,2.07-.65,2.68-.43.61-1.14.91-2.14.91-1.09,0-1.87-.27-2.35-.81Z"/>
          <path class="cls-2" d="m89.08,156.87v-11.96h4.79v2.31h-2.35v2.33h2.26v2.26h-2.26v2.74h2.51v2.33h-4.94Z"/>
          <path class="cls-2" d="m95.16,144.91h3.68c.58,0,1.04.13,1.36.4s.54.64.65,1.11c.11.48.17,1.09.17,1.83,0,.68-.09,1.21-.26,1.59-.18.38-.48.64-.92.79.36.08.62.26.79.54.16.29.24.68.24,1.17l-.03,4.53h-2.34v-4.68c0-.33-.06-.55-.19-.64-.13-.09-.37-.14-.71-.14v5.46h-2.42v-11.96Zm3.01,4.43c.33,0,.5-.36.5-1.09,0-.32-.01-.55-.04-.71-.03-.16-.08-.27-.15-.33s-.18-.09-.32-.09h-.56v2.21h.57Z"/>
          <path class="cls-2" d="m103.25,156.87l-1.48-11.97h2.28l.88,8.15.78-8.15h2.28l-1.48,11.97h-3.27Z"/>
          <path class="cls-2" d="m108.92,156.87v-11.96h2.31v11.96h-2.31Z"/>
          <path class="cls-2" d="m113.23,156.16c-.53-.55-.79-1.3-.79-2.26v-5.51c0-1.19.24-2.08.71-2.69s1.22-.91,2.23-.91c.88,0,1.59.24,2.13.72s.81,1.18.81,2.09v2.06h-2.38v-1.77c0-.34-.04-.58-.13-.71-.08-.13-.23-.2-.43-.2s-.36.07-.44.22-.12.37-.12.65v6c0,.32.05.54.14.69.09.14.23.22.42.22.37,0,.56-.3.56-.9v-2.16h2.41v2.25c0,2-1.01,3.01-3.02,3.01-.87,0-1.57-.27-2.09-.82Z"/>
          <path class="cls-2" d="m119.49,156.87v-11.96h4.79v2.31h-2.35v2.33h2.26v2.26h-2.26v2.74h2.51v2.33h-4.94Z"/>
          <path class="cls-2" d="m126.06,156.18c-.48-.54-.72-1.41-.72-2.6v-1.17h2.35v1.49c0,.59.19.89.57.89.21,0,.36-.06.45-.19.08-.13.12-.34.12-.63,0-.39-.05-.71-.14-.97-.09-.25-.21-.47-.36-.64-.14-.17-.4-.44-.77-.8l-1.03-1.03c-.8-.78-1.2-1.64-1.2-2.59,0-1.02.23-1.8.7-2.33.47-.53,1.15-.8,2.05-.8,1.08,0,1.85.29,2.33.86.47.57.71,1.46.71,2.68h-2.44v-.82c-.01-.16-.06-.28-.15-.38-.09-.09-.21-.14-.37-.14-.19,0-.33.05-.42.15s-.14.24-.14.42c0,.39.22.79.67,1.21l1.39,1.34c.33.32.59.62.81.9.21.28.38.62.51,1,.13.39.2.84.2,1.37,0,1.18-.22,2.07-.65,2.68-.43.61-1.14.91-2.14.91-1.09,0-1.87-.27-2.35-.81Z"/>
        </g>
        <g>
          <path d="m12.73,40.96c-.62.09-1.36-.15-2.21-.72l-.84-.56,1.12-1.69,1.07.71c.43.28.73.29.91.02.1-.15.13-.29.08-.41s-.18-.25-.39-.39c-.28-.19-.53-.31-.76-.36-.23-.06-.44-.07-.63-.05-.19.02-.51.08-.94.17l-1.23.25c-.94.2-1.75.07-2.43-.38-.73-.49-1.18-1.03-1.34-1.62s-.02-1.21.41-1.86c.51-.77,1.09-1.19,1.72-1.26.64-.07,1.39.19,2.26.77l-1.16,1.75-.6-.38c-.11-.08-.22-.1-.33-.08s-.2.08-.28.2c-.09.13-.12.26-.09.37.03.12.11.22.23.3.28.19.68.22,1.19.1l1.62-.36c.38-.08.72-.13,1.03-.15.3-.02.63.02.96.11.34.09.7.26,1.08.52.85.56,1.38,1.14,1.61,1.74.23.6.11,1.26-.37,1.97-.52.78-1.09,1.21-1.7,1.3Z"/>
          <path d="m16.5,36.51l-7.26-7.39,2.24-2.68,8.53,5.87-1.26,1.5-1.37-.96-.8.96,1.2,1.16-1.29,1.54Zm-1.07-3.87l.6-.72-4.31-3.02-.06.07,3.77,3.66Z"/>
          <path d="m21.77,30.55l-5.81-5.96-.88.85-1.38-1.42,3.23-3.15,1.38,1.42-.88.85,5.81,5.96-1.48,1.44Z"/>
          <path d="m25.28,27.27l-6.63-7.89,1.53-1.28,6.63,7.89-1.53,1.28Z"/>
          <path d="m28.23,24.08c-.61-.14-1.21-.62-1.81-1.46l-.59-.82,1.65-1.18.75,1.04c.3.42.58.53.85.34.15-.11.22-.23.22-.35,0-.13-.08-.3-.23-.51-.2-.27-.39-.48-.58-.61-.19-.13-.38-.22-.57-.27-.19-.05-.5-.11-.94-.17l-1.24-.21c-.95-.15-1.66-.55-2.14-1.22-.51-.72-.74-1.38-.68-1.99s.41-1.14,1.04-1.59c.75-.54,1.44-.73,2.06-.56.62.16,1.23.67,1.84,1.52l-1.71,1.22-.42-.57c-.08-.11-.17-.18-.28-.2-.11-.02-.22,0-.33.09-.13.09-.2.2-.22.32-.01.12.02.24.11.36.2.27.55.44,1.08.51l1.65.24c.39.06.72.13,1.02.23.29.09.58.24.86.44s.56.49.82.86c.59.83.89,1.56.89,2.2s-.34,1.21-1.04,1.71c-.76.54-1.45.75-2.05.61Z"/>
          <path d="m33.64,21.09l-5.2-8.9,3.56-2.08,1.01,1.73-1.77,1.04.83,1.42,1.68-.98,1,1.71-1.68.98,2.36,4.04-1.79,1.05Z"/>
          <path d="m38.4,18.35l-3.47-9.76,3.16-1.48,5.27,8.92-1.77.83-.84-1.45-1.13.53.6,1.56-1.81.85Zm.66-3.97l.85-.4-2.64-4.55-.09.04,1.88,4.91Z"/>
          <path d="m45.21,14.65c-.58-.29-1.02-.83-1.29-1.6l-1.6-4.47c-.34-.96-.41-1.76-.2-2.39s.72-1.09,1.55-1.38c.71-.26,1.36-.27,1.94-.03.58.24,1,.72,1.26,1.46l.6,1.67-1.93.69-.51-1.44c-.1-.28-.2-.46-.31-.54-.11-.08-.24-.09-.41-.03-.17.06-.27.16-.29.31-.02.14.01.33.09.57l1.74,4.87c.09.26.2.43.31.52s.25.11.4.05c.3-.11.37-.41.19-.9l-.63-1.75,1.96-.7.65,1.83c.58,1.63.06,2.73-1.58,3.32-.71.25-1.35.23-1.94-.06Z"/>
          <path d="m52.08,13.04l-2.12-8.06-1.18.31-.5-1.92,4.36-1.15.5,1.92-1.18.31,2.12,8.05-2,.52Z"/>
          <path d="m56.75,11.9l-1.96-10.12,1.96-.38,1.96,10.12-1.96.38Z"/>
          <path d="m61.02,10.46c-.49-.45-.79-1.14-.9-2.05l-.59-4.87c-.11-.88.03-1.57.4-2.07.38-.5.97-.8,1.8-.9s1.48.05,1.96.45.78,1.04.88,1.92l.59,4.87c.11.92-.02,1.66-.39,2.21-.37.55-.97.88-1.79.98s-1.48-.08-1.97-.53Zm2.09-1.64c.04-.17.05-.39.02-.68l-.6-5c-.03-.22-.08-.4-.15-.53s-.21-.19-.39-.16c-.34.04-.48.32-.42.84l.6,4.99c.04.29.1.51.19.65.09.14.23.2.42.18.18-.02.3-.12.34-.28Z"/>
          <path d="m67.34,10.45l-.29-10.3,2.12-.06,1.09,4.9-.14-4.93,1.99-.06.29,10.3-2.01.06-1.18-5.13.15,5.16-2.01.06Z"/>
          <path d="m78.74,9.92c-.3-.56-.39-1.37-.27-2.43l.5-4.41c.11-.95.4-1.64.88-2.07.48-.44,1.13-.61,1.97-.51.68.08,1.18.27,1.53.58.34.31.56.74.64,1.27.08.53.08,1.21-.01,2.02l-2-.23.1-.92c.03-.25.02-.44-.04-.58-.05-.14-.17-.22-.34-.24-.39-.04-.61.19-.67.7l-.57,4.96c-.04.31-.02.55.04.72.06.17.19.26.39.29.2.02.35-.04.44-.19s.16-.38.2-.69l.17-1.47-.55-.06.2-1.76,2.5.29-.68,5.96-.82-.09-.25-.9c-.44.59-1.04.85-1.8.76-.74-.08-1.26-.41-1.56-.97Z"/>
          <path d="m85.59,10.9c-.31-.55-.36-1.29-.17-2.22l1.53-7.39,1.96.41-1.51,7.31c-.07.32-.09.58-.06.77s.14.31.34.35c.2.04.35-.02.45-.18.1-.16.18-.41.25-.74l1.51-7.31,1.96.41-1.53,7.39c-.19.92-.54,1.58-1.04,1.97-.5.39-1.17.49-2,.32-.83-.17-1.4-.53-1.71-1.09Z"/>
          <path d="m91.24,12.77l3.97-9.57,3.34,1.02-2.08,10.15-1.87-.57.35-1.64-1.19-.37-.6,1.56-1.92-.59Zm3.15-2.5l.9.27,1.1-5.15-.09-.03-1.9,4.9Z"/>
          <path d="m101.93,5.4l2.93,1.21c.47.19.78.45.95.76.17.32.22.68.15,1.1s-.22.92-.47,1.51c-.22.54-.47.93-.73,1.18s-.6.36-.99.33c.26.18.41.41.45.69.03.28-.03.62-.19,1.01l-1.51,3.6-1.86-.77,1.54-3.73c.11-.27.13-.46.05-.57s-.25-.23-.52-.34l-1.79,4.35-1.93-.8,3.93-9.53Zm.94,4.52c.27.11.52-.12.76-.7.1-.25.17-.44.2-.58.03-.13.02-.24-.01-.31-.04-.07-.11-.13-.23-.18l-.44-.18-.73,1.76.45.19Z"/>
          <path d="m103.92,17.44l5.71-8.64,3.08,1.64-3.96,9.57-1.73-.92.66-1.54-1.1-.58-.89,1.42-1.77-.94Zm3.57-1.86l.83.44,2.06-4.85-.08-.04-2.8,4.45Z"/>
          <path d="m110.13,20.84l5.72-8.57,1.77,1.18-1.95,4.63,2.74-4.1,1.66,1.11-5.72,8.57-1.68-1.12,2-4.87-2.86,4.29-1.68-1.12Z"/>
          <path d="m116.54,25.36l5.26-6.46-.95-.77,1.25-1.53,3.5,2.85-1.25,1.53-.95-.77-5.26,6.46-1.6-1.3Z"/>
          <path d="m120.26,28.5l7.21-7.37,2.95,2.89-1.39,1.42-1.45-1.42-1.4,1.43,1.39,1.36-1.36,1.39-1.39-1.36-1.65,1.69,1.54,1.51-1.4,1.43-3.04-2.98Z"/>
          <path d="m124.44,32.71l7.88-6.65,2.66,3.15-1.52,1.29-1.31-1.55-1.53,1.29,1.25,1.49-1.49,1.25-1.25-1.49-1.81,1.52,1.39,1.65-1.53,1.29-2.75-3.25Z"/>
          <path d="m136.74,31.51l1.59,2.36c.41.61.55,1.18.42,1.71-.13.53-.53,1.03-1.18,1.48l-3.98,2.72c-.84.58-1.57.86-2.19.85-.62-.01-1.17-.36-1.64-1.05l-1.55-2.3,8.54-5.78Zm-5.66,6.77c.21.31.47.36.77.16l4.4-2.98c.19-.13.33-.24.4-.34.08-.09.1-.19.08-.3-.02-.1-.09-.24-.2-.4l-.13-.19-5.54,3.75.2.3Z"/>
        </g>
        <circle cx="4.89" cy="45.1" r="1.09"/>
        <circle cx="138.82" cy="45.1" r="1.09"/>
      </g>
    </g>
  </g>
</svg>